<svg width="49" height="46" viewBox="0 0 49 46" fill="none" xmlns="http://www.w3.org/2000/svg">
<path fill-rule="evenodd" clip-rule="evenodd" d="M24.4082 46C37.8884 46 48.8163 35.7025 48.8163 23C48.8163 10.2975 37.8884 0 24.4082 0C10.9279 0 0 10.2975 0 23C0 35.7025 10.9279 46 24.4082 46Z" fill="#6C41FF"/>
<path fill-rule="evenodd" clip-rule="evenodd" d="M36.9221 23.3516C37.0516 22.9186 37.1429 22.4716 37.1429 21.9996C37.1429 19.2386 34.7678 16.9996 31.8367 16.9996C31.5078 16.9996 31.1905 17.0376 30.8795 17.0906C29.3344 14.0806 26.0711 11.9996 22.2857 11.9996C17.0104 11.9996 12.7347 16.0296 12.7347 20.9996C12.7347 21.0846 12.7464 21.1666 12.7485 21.2506C10.8171 22.5146 9.55103 24.6166 9.55103 26.9996C9.55103 30.8666 12.8769 33.9996 16.9796 33.9996H22.2857H26.5306H32.898C36.4138 33.9996 39.2653 31.3136 39.2653 27.9996C39.2653 26.1246 38.3516 24.4516 36.9221 23.3516Z" stroke="white" stroke-width="2" stroke-linecap="round" stroke-linejoin="round"/>
<path d="M9.55103 27C9.55103 23.134 12.8769 20 16.9796 20" stroke="white" stroke-width="2" stroke-linecap="round" stroke-linejoin="round"/>
<path d="M22.2857 12C27.5611 12 31.8367 16.029 31.8367 21" stroke="white" stroke-width="2" stroke-linecap="round" stroke-linejoin="round"/>
<path d="M16.9796 30C15.2243 30 13.7959 28.654 13.7959 27" stroke="white" stroke-width="2" stroke-linecap="round" stroke-linejoin="round"/>
</svg>
